P3
10 10
255
230 0 127
230 25 127
230 51 127
230 76 127
230 102 127
230 127 127
230 153 127
230 179 127
230 204 127
230 230 127
204 0 127
204 25 127
204 51 127
204 76 127
204 102 127
204 127 127
204 153 127
204 179 127
204 204 127
204 230 127
179 0 127
179 25 127
179 51 127
179 76 127
179 102 127
179 127 127
179 153 127
179 179 127
179 204 127
179 230 127
153 0 127
153 25 127
153 51 127
153 76 127
153 102 127
153 127 127
153 153 127
153 179 127
153 204 127
153 230 127
127 0 127
127 25 127
127 51 127
127 76 127
127 102 127
127 127 127
127 153 127
127 179 127
127 204 127
127 230 127
102 0 127
102 25 127
102 51 127
102 76 127
102 102 127
102 127 127
102 153 127
102 179 127
102 204 127
102 230 127
76 0 127
76 25 127
76 51 127
76 76 127
76 102 127
76 127 127
76 153 127
76 179 127
76 204 127
76 230 127
51 0 127
51 25 127
51 51 127
51 76 127
51 102 127
51 127 127
51 153 127
51 179 127
51 204 127
51 230 127
25 0 127
25 25 127
25 51 127
25 76 127
25 102 127
25 127 127
25 153 127
25 179 127
25 204 127
25 230 127
0 0 127
0 25 127
0 51 127
0 76 127
0 102 127
0 127 127
0 153 127
0 179 127
0 204 127
0 230 127
